. 
  
http://www.torrenting.com/        :     Greatest Movie Tracker on The Net!!!
 
http://www.Torrenting.com          :     Once & For all ;)


               www . Torrenting . Com 

(((((((((((((= Enjoy No RAR releases =))))))))))))))))))))


...................................NFO:....................................

.








































          
          
              
              
                    
                    
                    
                    

Scream.4.2011.DVDRip.XviD.AC3-SiC

Poster:
[img]http://ia.media-imdb.com/images/M/MV5BMTQzMzk2OTI3MF5BMl5BanBnXkFtZTcwMTQ0NTk0NA@@._V1._SY317_.jpg[/img]

IMDB Link:
http://www.imdb.com/title/tt1262416/

Description:
Ten years have passed, and Sidney Prescott, who has put herself back together thanks in part to her writing, is visited by the Ghostface Killer. 

General
Complete name                    : Scream.4.2011.DVDRip.XviD.AC3-SiC.avi
Format                           : AVI
Format/Info                      : Audio Video Interleave
File size                        : 1.37 GiB
Duration                         : 1h 50mn
Overall bit rate                 : 1 768 Kbps
Writing application              : VirtualDubMod 1.5.10.2 (build 2542/release)
Writing library                  : VirtualDubMod build 2542/release

Video
ID                               : 0
Format                           : MPEG-4 Visual
Format profile                   : Advanced Simple@L5
Format settings, BVOP            : 2
Format settings, QPel            : No
Format settings, GMC             : No warppoints
Format settings, Matrix          : Default (MPEG)
Muxing mode                      : Packed bitstream
Codec ID                         : XVID
Codec ID/Hint                    : XviD
Duration                         : 1h 50mn
Bit rate                         : 1 314 Kbps
Width                            : 720 pixels
Height                           : 384 pixels
Display aspect ratio             : 1.875
Frame rate                       : 29.970 fps
Color space                      : YUV
Chroma subsampling               : 4:2:0
Bit depth                        : 8 bits
Scan type                        : Progressive
Compression mode                 : Lossy
Bits/(Pixel*Frame)               : 0.159
Stream size                      : 1.02 GiB (74%)
Writing library                  : XviD 64

Audio
ID                               : 1
Format                           : AC-3
Format/Info                      : Audio Coding 3
Mode extension                   : CM (complete main)
Codec ID                         : 2000
Duration                         : 1h 50mn
Bit rate mode                    : Constant
Bit rate                         : 448 Kbps
Channel(s)                       : 6 channels
Channel positions                : Front: L C R, Side: L R, LFE
Sampling rate                    : 48.0 KHz
Bit depth                        : 16 bits
Compression mode                 : Lossy
Delay relative to video          : 519ms
Stream size                      : 355 MiB (25%)
Alignment                        : Split accross interleaves
Interleave, duration             : 4680 ms (140.25 video frames)


Screenshots:
[img]http://img814.imageshack.us/img814/3420/snap1nd.png[/img]
[img]http://img28.imageshack.us/img28/5842/snap2p.png[/img]
[img]http://img853.imageshack.us/img853/3327/snap3z.png[/img]
[img]http://img851.imageshack.us/img851/5890/snap4c.png[/img]
[img]http://img197.imageshack.us/img197/3314/snap5e.png[/img]

Note : Video looked like shit as you could tell from the looks of TWiZTED's. Sharpened, smothened and did my thing. Turned out pretty decent. 

Source : YeFsTe Thanks Bro

Encoder: scumbag

Enjoy!

Respects to CaptainHomey, Cyanide, CM8, Rx, THC, ELEKTRI4KA, 
Killerhz, PA, YeFsTe, BoxSlots, MrRep and everyone in the struggle...